<?xml version="1.0" encoding="UTF-8"?>
<!DOCTYPE svg PUBLIC "-//W3C//DTD SVG 1.1//EN" "http://www.w3.org/Graphics/SVG/1.1/DTD/svg11.dtd">
<svg xmlns="http://www.w3.org/2000/svg" version="1.1" width="1376px" height="1500px" style="shape-rendering:geometricPrecision; text-rendering:geometricPrecision; image-rendering:optimizeQuality; fill-rule:evenodd; clip-rule:evenodd" xmlns:xlink="http://www.w3.org/1999/xlink">
<g><path style="opacity:0.978" fill="#fdfdfd" d="M 686.5,-0.5 C 702.5,-0.5 718.5,-0.5 734.5,-0.5C 788.047,5.51713 837.381,23.3505 882.5,53C 956.207,62.4267 1013.04,98.2601 1053,160.5C 1069.15,185.809 1081.82,212.809 1091,241.5C 1094.27,247.712 1097.27,254.046 1100,260.5C 1224.92,355.896 1308.92,479.562 1352,631.5C 1364.55,678.541 1372.38,726.208 1375.5,774.5C 1375.5,799.5 1375.5,824.5 1375.5,849.5C 1358.57,1066.57 1263.57,1240.07 1090.5,1370C 981.363,1447.77 859.696,1490.94 725.5,1499.5C 700.167,1499.5 674.833,1499.5 649.5,1499.5C 432.421,1482.57 258.921,1387.57 129,1214.5C 51.2258,1105.36 8.05917,983.691 -0.5,849.5C -0.5,824.5 -0.5,799.5 -0.5,774.5C 13.2595,576.481 94.9262,412.981 244.5,284C 267.491,265.341 291.324,247.841 316,231.5C 326.225,215.44 339.059,201.773 354.5,190.5C 355.77,174.651 359.27,159.317 365,144.5C 368.712,133.797 375.546,125.964 385.5,121C 390.104,119.939 394.771,119.273 399.5,119C 446.432,61.871 507.098,32.5377 581.5,31C 614.483,13.5034 649.483,3.00337 686.5,-0.5 Z"/></g>
<g><path style="opacity:1" fill="#2a1e2d" d="M 689.5,27.5 C 756.893,24.801 818.226,42.6343 873.5,81C 936.17,86.3991 985.67,114.566 1022,165.5C 1040.3,192.433 1054.63,221.433 1065,252.5C 1069.39,260.997 1073.39,269.664 1077,278.5C 1205.93,374.591 1290.26,500.924 1330,657.5C 1364.34,810.383 1348.34,957.716 1282,1099.5C 1209.38,1244.45 1099.21,1350.29 951.5,1417C 798.297,1481.32 642.297,1488.99 483.5,1440C 322.257,1385.16 198.757,1284.33 113,1137.5C 27.5671,982.043 5.90046,818.043 48,645.5C 89.7126,493.533 173.546,370.7 299.5,277C 311.5,269 323.5,261 335.5,253C 347.358,232.976 363.358,217.142 383.5,205.5C 384.112,193.802 384.945,182.135 386,170.5C 387.898,162.706 390.898,155.372 395,148.5C 395.726,156.224 396.726,163.89 398,171.5C 440.149,97.6567 503.982,60.1567 589.5,59C 620.598,41.065 653.931,30.565 689.5,27.5 Z"/></g>
<g><path style="opacity:1" fill="#796c7d" d="M 879.5,108.5 C 839.068,81.6263 794.734,64.793 746.5,58C 754.056,60.1102 760.723,63.7768 766.5,69C 747.879,61.8457 728.546,57.179 708.5,55C 675.324,52.6006 642.824,56.1006 611,65.5C 610.235,65.4301 609.735,65.0967 609.5,64.5C 692.107,34.6612 771.441,41.8279 847.5,86C 858.759,92.784 869.425,100.284 879.5,108.5 Z"/></g>
<g><path style="opacity:1" fill="#514755" d="M 879.5,108.5 C 885.058,111.878 890.224,115.878 895,120.5C 892.515,112.35 889.015,104.517 884.5,97C 885.437,96.3083 886.103,96.475 886.5,97.5C 916.631,113.777 942.464,135.443 964,162.5C 986.752,191.998 1003.75,224.665 1015,260.5C 1011.31,236.937 1004.48,214.271 994.5,192.5C 1016.81,227.842 1033.98,266.176 1046,307.5C 1049.75,322.081 1053.08,336.748 1056,351.5C 1058.33,340.894 1060.33,330.228 1062,319.5C 1071.52,359.046 1074.02,399.046 1069.5,439.5C 1069.52,440.726 1069.85,441.726 1070.5,442.5C 1070.69,444.103 1070.19,445.437 1069,446.5C 1065.79,440.116 1061.29,434.783 1055.5,430.5C 1054.5,437.803 1054.17,445.137 1054.5,452.5C 1049.63,411.43 1033.8,375.096 1007,343.5C 994.93,329.428 981.596,316.761 967,305.5C 966.667,315.5 966.333,325.5 966,335.5C 958.376,319.21 948.376,304.543 936,291.5C 921.169,277.669 906.669,263.502 892.5,249C 860.411,223.867 824.078,214.2 783.5,220C 794.543,212.965 806.543,209.799 819.5,210.5C 856.236,217.249 891.569,228.082 925.5,243C 902.055,224.445 875.722,211.445 846.5,204C 859.798,202.809 873.131,202.142 886.5,202C 881.833,200 877.167,198 872.5,196C 875.167,195.667 877.833,195.333 880.5,195C 860.252,191.189 839.919,187.855 819.5,185C 798.81,184.419 778.143,184.419 757.5,185C 771.225,180.069 785.225,176.069 799.5,173C 783.616,172.411 767.95,174.078 752.5,178C 736.616,181.554 720.949,185.554 705.5,190C 722.24,179.3 740.24,171.3 759.5,166C 788.7,158.3 818.367,153.3 848.5,151C 844.406,148.62 840.073,146.787 835.5,145.5C 832.603,144.871 829.936,143.871 827.5,142.5C 760.48,116.858 694.146,118.691 628.5,148C 590.717,166.302 557.55,190.802 529,221.5C 529.753,216.874 530.753,212.208 532,207.5C 532.667,204.167 532.667,200.833 532,197.5C 512.436,223.367 486.77,240.034 455,247.5C 453.743,247.15 453.409,246.483 454,245.5C 473.2,223.299 494.034,202.799 516.5,184C 498.411,192.643 481.578,203.477 466,216.5C 465.333,215.833 465.333,215.167 466,214.5C 501.919,175.932 544.752,147.765 594.5,130C 535.188,146.069 485.355,177.236 445,223.5C 437.929,231.974 431.595,240.974 426,250.5C 386.178,271.001 361.345,303.168 351.5,347C 348.564,346.107 346.064,344.274 344,341.5C 341.477,337.767 338.977,334.101 336.5,330.5C 331.356,279.951 350.69,242.118 394.5,217C 395.085,215.698 395.751,214.531 396.5,213.5C 432.755,151.241 486.755,112.075 558.5,96C 578.376,95.9378 598.043,93.9378 617.5,90C 627.068,87.93 635.401,83.5966 642.5,77C 640.803,76.6155 639.137,76.7822 637.5,77.5C 637.611,76.8826 637.944,76.3826 638.5,76C 627.324,74.3749 616.657,71.2082 606.5,66.5C 607.357,65.5748 608.357,64.9081 609.5,64.5C 609.735,65.0967 610.235,65.4301 611,65.5C 642.824,56.1006 675.324,52.6006 708.5,55C 728.546,57.179 747.879,61.8457 766.5,69C 760.723,63.7768 754.056,60.1102 746.5,58C 794.734,64.793 839.068,81.6263 879.5,108.5 Z"/></g>
<g><path style="opacity:1" fill="#7b6e7f" d="M 637.5,77.5 C 639.137,76.7822 640.803,76.6155 642.5,77C 635.401,83.5966 627.068,87.93 617.5,90C 598.043,93.9378 578.376,95.9378 558.5,96C 486.755,112.075 432.755,151.241 396.5,213.5C 416.658,154.173 455.658,112.34 513.5,88C 527.128,82.9017 541.128,79.235 555.5,77C 571.014,77.3213 586.514,78.1546 602,79.5C 613.855,79.1207 625.688,78.4541 637.5,77.5 Z"/></g>
<g><path style="opacity:1" fill="#7b6e7f" d="M 886.5,97.5 C 954.84,120.942 1004.01,165.609 1034,231.5C 1043.32,253.095 1050.32,275.429 1055,298.5C 1057.15,291.24 1058.98,283.907 1060.5,276.5C 1076.29,311.559 1081.79,348.225 1077,386.5C 1075.16,405.207 1073,423.874 1070.5,442.5C 1069.85,441.726 1069.52,440.726 1069.5,439.5C 1074.02,399.046 1071.52,359.046 1062,319.5C 1060.33,330.228 1058.33,340.894 1056,351.5C 1053.08,336.748 1049.75,322.081 1046,307.5C 1033.98,266.176 1016.81,227.842 994.5,192.5C 1004.48,214.271 1011.31,236.937 1015,260.5C 1003.75,224.665 986.752,191.998 964,162.5C 942.464,135.443 916.631,113.777 886.5,97.5 Z"/></g>
<g><path style="opacity:1" fill="#413446" d="M 827.5,142.5 C 752.444,122.787 682.111,133.621 616.5,175C 592.673,190.265 570.673,207.932 550.5,228C 523.562,246.134 494.229,258.8 462.5,266C 452.876,267.541 443.21,268.708 433.5,269.5C 423.553,294.926 408.386,316.593 388,334.5C 378.52,351.934 371.186,370.267 366,389.5C 360.843,409.62 356.843,429.954 354,450.5C 348.867,424.771 346.533,398.771 347,372.5C 341.302,359.041 337.802,345.041 336.5,330.5C 338.977,334.101 341.477,337.767 344,341.5C 346.064,344.274 348.564,346.107 351.5,347C 361.345,303.168 386.178,271.001 426,250.5C 431.595,240.974 437.929,231.974 445,223.5C 485.355,177.236 535.188,146.069 594.5,130C 544.752,147.765 501.919,175.932 466,214.5C 465.333,215.167 465.333,215.833 466,216.5C 481.578,203.477 498.411,192.643 516.5,184C 494.034,202.799 473.2,223.299 454,245.5C 453.409,246.483 453.743,247.15 455,247.5C 486.77,240.034 512.436,223.367 532,197.5C 532.667,200.833 532.667,204.167 532,207.5C 530.753,212.208 529.753,216.874 529,221.5C 557.55,190.802 590.717,166.302 628.5,148C 694.146,118.691 760.48,116.858 827.5,142.5 Z"/></g>
<g><path style="opacity:1" fill="#403445" d="M 835.5,145.5 C 840.073,146.787 844.406,148.62 848.5,151C 818.367,153.3 788.7,158.3 759.5,166C 740.24,171.3 722.24,179.3 705.5,190C 720.949,185.554 736.616,181.554 752.5,178C 767.95,174.078 783.616,172.411 799.5,173C 785.225,176.069 771.225,180.069 757.5,185C 778.143,184.419 798.81,184.419 819.5,185C 839.919,187.855 860.252,191.189 880.5,195C 877.833,195.333 875.167,195.667 872.5,196C 877.167,198 881.833,200 886.5,202C 873.131,202.142 859.798,202.809 846.5,204C 875.722,211.445 902.055,224.445 925.5,243C 891.569,228.082 856.236,217.249 819.5,210.5C 806.543,209.799 794.543,212.965 783.5,220C 824.078,214.2 860.411,223.867 892.5,249C 906.669,263.502 921.169,277.669 936,291.5C 948.376,304.543 958.376,319.21 966,335.5C 966.333,325.5 966.667,315.5 967,305.5C 981.596,316.761 994.93,329.428 1007,343.5C 1033.8,375.096 1049.63,411.43 1054.5,452.5C 1054.66,454.199 1054.49,455.866 1054,457.5C 1046.49,432.806 1035.49,409.806 1021,388.5C 1018.57,385.312 1015.9,382.312 1013,379.5C 1012.6,389.628 1011.27,399.628 1009,409.5C 1003.25,385.314 990.917,365.314 972,349.5C 972.603,357.621 971.603,365.621 969,373.5C 959.074,352.075 944.574,334.408 925.5,320.5C 925.662,327.429 925.329,334.429 924.5,341.5C 917.779,333.611 910.279,326.611 902,320.5C 883.994,287.522 856.494,267.022 819.5,259C 798.372,254.42 777.038,252.753 755.5,254C 779.582,244.212 804.582,240.546 830.5,243C 854.095,244.732 876.761,250.232 898.5,259.5C 899.696,259.154 899.696,258.654 898.5,258C 856.862,229.667 811.862,223 763.5,238C 740.894,245.202 718.227,252.202 695.5,259C 671.256,264.562 646.923,264.895 622.5,260C 622.043,259.586 621.709,259.086 621.5,258.5C 628.608,248.557 636.942,239.724 646.5,232C 631.591,237.292 617.925,244.958 605.5,255C 599.648,255 593.981,253.834 588.5,251.5C 587.432,249.813 587.599,248.146 589,246.5C 601.54,229.626 616.374,215.126 633.5,203C 660.761,184.125 689.761,168.125 720.5,155C 693.016,161.165 667.35,171.832 643.5,187C 618.408,203.088 596.075,222.421 576.5,245C 570.993,244.084 565.993,241.751 561.5,238C 604.075,192.142 655.742,161.142 716.5,145C 755.795,135.945 794.962,136.445 834,146.5C 834.765,146.43 835.265,146.097 835.5,145.5 Z"/></g>
<g><path style="opacity:1" fill="#f7c5be" d="M 545.5,244.5 C 545.5,245.167 545.5,245.833 545.5,246.5C 540.825,256.679 533.492,264.513 523.5,270C 507.212,277.318 490.545,283.652 473.5,289C 460.005,293.831 449.505,302.331 442,314.5C 436.512,326.81 430.512,338.81 424,350.5C 411.655,363.522 401.655,378.189 394,394.5C 381.621,430.855 373.955,468.188 371,506.5C 369.311,525.805 368.144,545.138 367.5,564.5C 364.898,566.142 362.231,567.808 359.5,569.5C 353.512,500.578 361.345,433.245 383,367.5C 386.119,359.261 389.786,351.261 394,343.5C 415.05,326.535 430.884,305.702 441.5,281C 479.383,278.375 513.55,265.875 544,243.5C 544.383,244.056 544.883,244.389 545.5,244.5 Z"/></g>
<g><path style="opacity:1" fill="#cd8075" d="M 545.5,244.5 C 571.116,259.538 598.782,268.705 628.5,272C 664.067,275.169 699.4,273.502 734.5,267C 770.265,262.804 804.932,267.137 838.5,280C 859.836,289.005 877.336,302.838 891,321.5C 898.975,345.152 902.808,369.486 902.5,394.5C 902.208,414.293 900.542,433.96 897.5,453.5C 897.501,442.692 897.335,431.692 897,420.5C 892.373,341.542 850.873,297.042 772.5,287C 750.183,285.579 727.849,285.245 705.5,286C 688.703,287.625 671.869,288.792 655,289.5C 619.247,290.196 587.081,280.029 558.5,259C 554.298,254.63 549.964,250.463 545.5,246.5C 545.5,245.833 545.5,245.167 545.5,244.5 Z"/></g>
<g><path style="opacity:1" fill="#f5b1a3" d="M 545.5,246.5 C 549.964,250.463 554.298,254.63 558.5,259C 587.081,280.029 619.247,290.196 655,289.5C 671.869,288.792 688.703,287.625 705.5,286C 727.849,285.245 750.183,285.579 772.5,287C 850.873,297.042 892.373,341.542 897,420.5C 897.335,431.692 897.501,442.692 897.5,453.5C 914.15,466.781 926.983,483.115 936,502.5C 949.65,531.436 957.483,561.77 959.5,593.5C 939.424,586.195 918.757,583.862 897.5,586.5C 896.704,581.191 894.038,577.025 889.5,574C 878.912,568.025 867.578,564.025 855.5,562C 847.471,560.877 839.471,559.71 831.5,558.5C 816.298,551.53 800.298,547.03 783.5,545C 804.909,537.587 826.909,535.587 849.5,539C 865.004,541.459 880.004,545.625 894.5,551.5C 896.757,551.962 898.757,552.962 900.5,554.5C 900.833,554 901.167,553.5 901.5,553C 884.477,512.666 854.144,489.666 810.5,484C 805.78,483.283 801.114,483.45 796.5,484.5C 773.203,486.074 750.87,491.574 729.5,501C 711.061,511.221 691.728,519.221 671.5,525C 663.848,525.931 656.181,526.764 648.5,527.5C 642.724,536.725 638.891,546.725 637,557.5C 634.971,568.744 634.138,580.077 634.5,591.5C 619.167,591.5 603.833,591.5 588.5,591.5C 586.5,591.5 584.5,591.5 582.5,591.5C 580.806,570.406 573.806,551.406 561.5,534.5C 550.117,516.787 534.45,504.287 514.5,497C 488.484,489.551 462.984,480.717 438,470.5C 405.747,478.919 384.247,498.919 373.5,530.5C 372.115,531.302 372.282,531.969 374,532.5C 404.792,523.404 435.625,523.238 466.5,532C 473.879,534.191 480.879,537.191 487.5,541C 465.737,540.939 446.404,547.606 429.5,561C 418.992,561.17 408.659,561.67 398.5,562.5C 388.047,561.997 377.713,562.664 367.5,564.5C 368.144,545.138 369.311,525.805 371,506.5C 373.955,468.188 381.621,430.855 394,394.5C 401.655,378.189 411.655,363.522 424,350.5C 430.512,338.81 436.512,326.81 442,314.5C 449.505,302.331 460.005,293.831 473.5,289C 490.545,283.652 507.212,277.318 523.5,270C 533.492,264.513 540.825,256.679 545.5,246.5 Z"/></g>
<g><path style="opacity:1" fill="#fefefe" d="M 330.5,362.5 C 330.158,363.338 329.492,363.672 328.5,363.5C 321.052,362.65 314.552,364.65 309,369.5C 308.312,370.332 308.479,370.998 309.5,371.5C 314.637,370.256 319.637,370.756 324.5,373C 317.076,376.09 312.076,381.423 309.5,389C 313.822,386.861 318.489,385.194 323.5,384C 328.184,383.539 332.851,383.705 337.5,384.5C 337.232,396.203 337.732,407.869 339,419.5C 343.548,437.575 346.548,455.908 348,474.5C 348.667,507.5 348.667,540.5 348,573.5C 343.216,575.95 339.383,579.45 336.5,584C 329.833,584.333 323.167,584.667 316.5,585C 311.691,585.305 309.691,587.805 310.5,592.5C 311.56,599.179 313.727,605.513 317,611.5C 317.903,612.701 319.069,613.535 320.5,614C 324.203,614.579 327.869,614.412 331.5,613.5C 330.831,634.984 333.665,655.984 340,676.5C 342.139,682.112 344.806,687.446 348,692.5C 350.124,726.46 351.457,760.46 352,794.5C 354.124,825.656 359.124,856.323 367,886.5C 369.941,895.323 373.274,903.99 377,912.5C 410.931,979.564 448.764,1044.06 490.5,1106C 423.561,1160.93 356.561,1215.93 289.5,1271C 287.956,1272.19 286.289,1272.52 284.5,1272C 166.049,1165.95 97.5494,1033.45 79,874.5C 63.275,693.348 115.275,535.015 235,399.5C 262.225,370.762 291.392,344.429 322.5,320.5C 324.307,334.677 326.974,348.677 330.5,362.5 Z"/></g>
<g><path style="opacity:1" fill="#413446" d="M 1034.5,473.5 C 1033.84,459.364 1029.68,446.364 1022,434.5C 1019.1,448.23 1016.1,461.897 1013,475.5C 1005.33,453.833 997.667,432.167 990,410.5C 989.667,421.5 989.333,432.5 989,443.5C 974.796,425.109 963.13,405.109 954,383.5C 954.074,394.831 954.074,406.164 954,417.5C 943.333,404.167 932.667,390.833 922,377.5C 921.667,382.833 921.333,388.167 921,393.5C 918.333,388.167 915.667,382.833 913,377.5C 912.536,378.094 912.369,378.761 912.5,379.5C 910.726,366.579 908.892,353.579 907,340.5C 922.043,354.251 933.377,370.585 941,389.5C 942.487,383.795 943.32,377.961 943.5,372C 942.629,361.998 941.129,352.164 939,342.5C 955.049,360.919 966.715,381.919 974,405.5C 976.414,392.608 977.914,379.608 978.5,366.5C 985.684,374.88 991.517,384.213 996,394.5C 1001.77,409.907 1006.43,425.574 1010,441.5C 1014.97,428.644 1017.64,415.311 1018,401.5C 1026.81,410.886 1032.81,421.886 1036,434.5C 1040.54,447.752 1040.04,460.752 1034.5,473.5 Z"/></g>
<g><path style="opacity:1" fill="#fefefe" d="M 1096.5,357.5 C 1192.65,444.398 1255.48,551.398 1285,678.5C 1316.78,830.784 1295.44,975.117 1221,1111.5C 1214.9,1122.71 1208.07,1133.38 1200.5,1143.5C 1167.92,1115.42 1136.08,1086.42 1105,1056.5C 1080.81,1024.7 1070.47,988.7 1074,948.5C 1065.59,921.204 1047.09,908.704 1018.5,911C 1006.5,913.167 994.5,915.333 982.5,917.5C 981.833,917.167 981.167,916.833 980.5,916.5C 998.666,864.516 1004.5,811.182 998,756.5C 1014.05,739.758 1026.05,720.425 1034,698.5C 1034.94,694.886 1035.61,691.219 1036,687.5C 1037.33,663.509 1038,639.509 1038,615.5C 1036.57,609.075 1032.74,604.908 1026.5,603C 1021.91,602.201 1017.41,602.368 1013,603.5C 1016.02,591.418 1019.69,579.418 1024,567.5C 1035.05,532.712 1043.38,497.379 1049,461.5C 1053.93,472.61 1058.26,483.943 1062,495.5C 1062.61,481.446 1062.61,467.446 1062,453.5C 1066.03,460.23 1069.53,467.23 1072.5,474.5C 1084.28,453.985 1091.78,431.985 1095,408.5C 1096.32,391.528 1096.82,374.528 1096.5,357.5 Z"/></g>
<g><path style="opacity:1" fill="#8c858d" d="M 330.5,362.5 C 331.885,363.302 331.718,363.969 330,364.5C 329.235,364.43 328.735,364.097 328.5,363.5C 329.492,363.672 330.158,363.338 330.5,362.5 Z"/></g>
<g><path style="opacity:1" fill="#504256" d="M 1034.5,473.5 C 1028.65,502.21 1021.31,530.543 1012.5,558.5C 998.568,560.358 987.401,555.692 979,544.5C 976.412,540.326 974.079,535.993 972,531.5C 968.255,520.693 965.255,509.693 963,498.5C 959.736,484.801 952.57,473.634 941.5,465C 930.42,457.421 920.087,448.921 910.5,439.5C 911.954,419.53 912.62,399.53 912.5,379.5C 912.369,378.761 912.536,378.094 913,377.5C 915.667,382.833 918.333,388.167 921,393.5C 921.333,388.167 921.667,382.833 922,377.5C 932.667,390.833 943.333,404.167 954,417.5C 954.074,406.164 954.074,394.831 954,383.5C 963.13,405.109 974.796,425.109 989,443.5C 989.333,432.5 989.667,421.5 990,410.5C 997.667,432.167 1005.33,453.833 1013,475.5C 1016.1,461.897 1019.1,448.23 1022,434.5C 1029.68,446.364 1033.84,459.364 1034.5,473.5 Z"/></g>
<g><path style="opacity:1" fill="#7c6f80" d="M 910.5,439.5 C 920.087,448.921 930.42,457.421 941.5,465C 952.57,473.634 959.736,484.801 963,498.5C 965.255,509.693 968.255,520.693 972,531.5C 974.079,535.993 976.412,540.326 979,544.5C 987.401,555.692 998.568,560.358 1012.5,558.5C 1007.81,573.71 1002.14,588.543 995.5,603C 986.651,601.443 977.985,598.943 969.5,595.5C 967.769,557.241 957.936,521.241 940,487.5C 932.201,473.698 922.201,461.698 910,451.5C 909.238,447.413 909.404,443.413 910.5,439.5 Z"/></g>
<g><path style="opacity:1" fill="#2a1e2d" d="M 561.5,534.5 C 556.261,533.195 550.928,532.361 545.5,532C 526.754,531.645 508.087,530.312 489.5,528C 471.399,523.808 453.399,519.308 435.5,514.5C 413.741,515.731 393.241,521.397 374,531.5C 373.601,531.272 373.435,530.938 373.5,530.5C 384.247,498.919 405.747,478.919 438,470.5C 462.984,480.717 488.484,489.551 514.5,497C 534.45,504.287 550.117,516.787 561.5,534.5 Z"/></g>
<g><path style="opacity:1" fill="#2a1e2d" d="M 894.5,551.5 C 858.975,531.164 820.975,524.664 780.5,532C 760.727,537.943 740.727,542.943 720.5,547C 706.219,549.065 692.552,547.065 679.5,541C 702.177,532.166 723.177,520.499 742.5,506C 759.402,495.762 777.402,488.595 796.5,484.5C 801.114,483.45 805.78,483.283 810.5,484C 854.144,489.666 884.477,512.666 901.5,553C 901.167,553.5 900.833,554 900.5,554.5C 898.757,552.962 896.757,551.962 894.5,551.5 Z"/></g>
<g><path style="opacity:1" fill="#cd8075" d="M 796.5,484.5 C 777.402,488.595 759.402,495.762 742.5,506C 723.177,520.499 702.177,532.166 679.5,541C 692.552,547.065 706.219,549.065 720.5,547C 740.727,542.943 760.727,537.943 780.5,532C 820.975,524.664 858.975,531.164 894.5,551.5C 880.004,545.625 865.004,541.459 849.5,539C 826.909,535.587 804.909,537.587 783.5,545C 800.298,547.03 816.298,551.53 831.5,558.5C 798.478,555.767 765.478,555.934 732.5,559C 707.879,561.763 684.546,568.763 662.5,580C 656.967,582.934 651.967,586.6 647.5,591C 627.686,592.668 608.019,592.835 588.5,591.5C 603.833,591.5 619.167,591.5 634.5,591.5C 634.138,580.077 634.971,568.744 637,557.5C 638.891,546.725 642.724,536.725 648.5,527.5C 656.181,526.764 663.848,525.931 671.5,525C 691.728,519.221 711.061,511.221 729.5,501C 750.87,491.574 773.203,486.074 796.5,484.5 Z"/></g>
<g><path style="opacity:1" fill="#cd8074" d="M 561.5,534.5 C 573.806,551.406 580.806,570.406 582.5,591.5C 577.819,591.331 573.152,590.998 568.5,590.5C 565.906,579.06 559.573,570.227 549.5,564C 537.473,556.88 524.473,552.547 510.5,551C 488.091,547.816 466.091,549.483 444.5,556C 441.166,557.331 438.166,559.165 435.5,561.5C 423.185,562.499 410.851,562.832 398.5,562.5C 408.659,561.67 418.992,561.17 429.5,561C 446.404,547.606 465.737,540.939 487.5,541C 480.879,537.191 473.879,534.191 466.5,532C 435.625,523.238 404.792,523.404 374,532.5C 372.282,531.969 372.115,531.302 373.5,530.5C 373.435,530.938 373.601,531.272 374,531.5C 393.241,521.397 413.741,515.731 435.5,514.5C 453.399,519.308 471.399,523.808 489.5,528C 508.087,530.312 526.754,531.645 545.5,532C 550.928,532.361 556.261,533.195 561.5,534.5 Z"/></g>
<g><path style="opacity:1" fill="#c47a70" d="M 471.5,562.5 C 464.167,561.833 456.833,561.167 449.5,560.5C 470.248,551.693 491.248,551.193 512.5,559C 523.651,562.245 534.317,566.579 544.5,572C 520.747,565.229 496.414,562.062 471.5,562.5 Z"/></g>
<g><path style="opacity:1" fill="#774c4f" d="M 449.5,560.5 C 456.833,561.167 464.167,561.833 471.5,562.5C 463.16,562.666 454.827,562.5 446.5,562C 447.244,560.961 448.244,560.461 449.5,560.5 Z"/></g>
<g><path style="opacity:1" fill="#ca7e73" d="M 838.5,591.5 C 838.5,592.5 838.5,593.5 838.5,594.5C 831.626,591.385 824.626,588.885 817.5,587C 823.753,591.613 829.753,596.446 835.5,601.5C 835.567,602.959 835.234,604.292 834.5,605.5C 809.069,583.3 779.402,573.133 745.5,575C 738.677,576.395 732.01,578.229 725.5,580.5C 726.167,577.5 726.833,574.5 727.5,571.5C 767.213,563.694 804.213,570.36 838.5,591.5 Z"/></g>
<g><path style="opacity:1" fill="#f3ae9f" d="M 390.5,572.5 C 388.167,582.496 385.834,592.496 383.5,602.5C 380.583,610.843 378.583,619.51 377.5,628.5C 375.175,637.05 372.841,645.717 370.5,654.5C 370.36,656.03 369.693,657.03 368.5,657.5C 368.267,638.999 367.933,620.499 367.5,602C 367.498,593.139 366.831,584.639 365.5,576.5C 373.319,572.893 381.653,571.56 390.5,572.5 Z"/></g>
<g><path style="opacity:1" fill="#c37c72" d="M 463.5,572.5 C 457.5,572.5 451.5,572.5 445.5,572.5C 445.142,575.267 444.475,577.933 443.5,580.5C 442.833,580.5 442.167,580.5 441.5,580.5C 441.953,579.542 442.619,578.708 443.5,578C 437.119,577.263 431.119,578.429 425.5,581.5C 425.833,579.5 426.167,577.5 426.5,575.5C 428.273,574.108 430.273,572.941 432.5,572C 444.217,571.183 454.55,571.35 463.5,572.5 Z"/></g>
<g><path style="opacity:1" fill="#eca99b" d="M 844.5,574.5 C 843.297,578.11 842.297,581.777 841.5,585.5C 841.167,585.5 840.833,585.5 840.5,585.5C 834.703,581.097 828.703,576.93 822.5,573C 829.9,572.508 837.233,573.008 844.5,574.5 Z"/></g>
<g><path style="opacity:1" fill="#2c202f" d="M 834.5,605.5 C 834.5,605.833 834.5,606.167 834.5,606.5C 832.102,612.696 830.102,619.029 828.5,625.5C 828.167,626.167 827.833,626.833 827.5,627.5C 822.651,630.838 817.651,634.004 812.5,637C 806.695,639.097 801.029,641.263 795.5,643.5C 779.973,646.351 764.306,647.184 748.5,646C 737.593,643.377 727.593,638.877 718.5,632.5C 717.055,630.937 715.389,629.604 713.5,628.5C 713.5,628.167 713.5,627.833 713.5,627.5C 713.386,624.784 714.386,622.784 716.5,621.5C 753.909,643.506 789.575,641.006 823.5,614C 815.986,608.74 807.986,604.24 799.5,600.5C 798.134,611.399 793.467,620.566 785.5,628C 767.733,637.883 753.566,634.049 743,616.5C 739.25,608.585 737.083,600.251 736.5,591.5C 731.652,591.672 726.985,592.672 722.5,594.5C 723.007,590.14 723.673,585.807 724.5,581.5C 725.167,581.5 725.5,581.167 725.5,580.5C 732.01,578.229 738.677,576.395 745.5,575C 779.402,573.133 809.069,583.3 834.5,605.5 Z"/></g>
<g><path style="opacity:1" fill="#fae8e4" d="M 844.5,574.5 C 853.045,575.683 861.379,577.683 869.5,580.5C 865.612,594.408 861.279,608.075 856.5,621.5C 850.696,613.512 845.03,605.346 839.5,597C 840.5,596.333 841.5,596.333 842.5,597C 845.727,599.112 849.06,600.945 852.5,602.5C 855.721,605.101 856.221,604.434 854,600.5C 850.302,595.1 846.135,590.1 841.5,585.5C 842.297,581.777 843.297,578.11 844.5,574.5 Z"/></g>
<g><path style="opacity:1" fill="#f6c3bc" d="M 365.5,576.5 C 366.831,584.639 367.498,593.139 367.5,602C 367.933,620.499 368.267,638.999 368.5,657.5C 368.263,658.791 368.596,659.791 369.5,660.5C 369.738,671.355 369.738,682.022 369.5,692.5C 360.074,688.552 355.074,681.385 354.5,671C 359.559,641.784 360.559,612.45 357.5,583C 359.044,579.637 361.711,577.47 365.5,576.5 Z"/></g>
<g><path style="opacity:1" fill="#efd4d0" d="M 727.5,571.5 C 726.833,574.5 726.167,577.5 725.5,580.5C 725.5,581.167 725.167,581.5 724.5,581.5C 717.183,584.155 710.516,587.822 704.5,592.5C 701.167,594.833 697.833,597.167 694.5,599.5C 696.5,592.501 698.5,585.501 700.5,578.5C 709.192,575.409 718.192,573.076 727.5,571.5 Z"/></g>
<g><path style="opacity:1" fill="#eeaa9b" d="M 441.5,580.5 C 435.189,584.466 428.856,588.466 422.5,592.5C 422.926,588.573 423.926,584.907 425.5,581.5C 431.119,578.429 437.119,577.263 443.5,578C 442.619,578.708 441.953,579.542 441.5,580.5 Z"/></g>
<g><path style="opacity:1" fill="#cf8378" d="M 700.5,578.5 C 698.5,585.501 696.5,592.501 694.5,599.5C 694.167,600.167 693.833,600.833 693.5,601.5C 690.985,603.182 688.985,605.348 687.5,608C 687.899,609.981 688.899,611.481 690.5,612.5C 690.5,612.833 690.5,613.167 690.5,613.5C 688.651,618.564 686.651,623.564 684.5,628.5C 683.058,625.8 682.392,626.134 682.5,629.5C 683.819,638.944 686.153,648.111 689.5,657C 689.167,657.167 688.833,657.333 688.5,657.5C 678.599,649.101 670.765,639.101 665,627.5C 666.486,652.803 674.986,675.47 690.5,695.5C 688.407,694.955 686.407,694.122 684.5,693C 674.165,683.858 666.665,672.692 662,659.5C 656.29,643.954 653.29,627.954 653,611.5C 653.279,608.543 654.113,605.877 655.5,603.5C 658.808,610.11 662.642,616.444 667,622.5C 669.996,615.677 672.496,608.677 674.5,601.5C 676.5,596.5 678.5,591.5 680.5,586.5C 686.704,582.872 693.371,580.205 700.5,578.5 Z"/></g>
<g><path style="opacity:1" fill="#2d202f" d="M 441.5,580.5 C 442.167,580.5 442.833,580.5 443.5,580.5C 441.5,586.833 439.5,593.167 437.5,599.5C 433.232,602.309 428.898,605.143 424.5,608C 427.014,610.415 429.681,612.581 432.5,614.5C 431.458,618.697 430.125,622.697 428.5,626.5C 423.619,624.291 419.619,620.957 416.5,616.5C 417.537,609.018 419.204,601.685 421.5,594.5C 421.833,593.833 422.167,593.167 422.5,592.5C 428.856,588.466 435.189,584.466 441.5,580.5 Z"/></g>
<g><path style="opacity:1" fill="#f9dbd3" d="M 390.5,572.5 C 401.838,572.333 413.172,572.5 424.5,573C 422.451,575.593 420.285,578.093 418,580.5C 417.333,581.167 417.333,581.833 418,582.5C 420.416,579.577 423.25,577.243 426.5,575.5C 426.167,577.5 425.833,579.5 425.5,581.5C 423.926,584.907 422.926,588.573 422.5,592.5C 422.167,593.167 421.833,593.833 421.5,594.5C 417.172,597.004 413.172,600.004 409.5,603.5C 400.651,603.826 391.984,603.493 383.5,602.5C 385.834,592.496 388.167,582.496 390.5,572.5 Z"/></g>
<g><path style="opacity:1" fill="#f2f1f2" d="M 348.5,585.5 C 349.75,585.577 350.583,586.244 351,587.5C 351.5,593.825 351.666,600.158 351.5,606.5C 347.778,605.983 344.112,605.15 340.5,604C 339.172,596.152 341.838,589.986 348.5,585.5 Z"/></g>
<g><path style="opacity:1" fill="#f4f3f4" d="M 475.5,585.5 C 477.167,585.5 478.833,585.5 480.5,585.5C 479.925,597.234 485.259,604.234 496.5,606.5C 505.262,605.909 510.428,601.242 512,592.5C 512.497,590.19 512.663,587.857 512.5,585.5C 513.822,585.33 514.989,585.663 516,586.5C 517.672,606.494 508.505,615.327 488.5,613C 476.483,607.466 472.15,598.3 475.5,585.5 Z"/></g>
<g><path style="opacity:1" fill="#bcb0b3" d="M 463.5,572.5 C 461.837,578.484 460.17,584.484 458.5,590.5C 451.388,593.222 444.388,596.222 437.5,599.5C 439.5,593.167 441.5,586.833 443.5,580.5C 444.475,577.933 445.142,575.267 445.5,572.5C 451.5,572.5 457.5,572.5 463.5,572.5 Z"/></g>
<g><path style="opacity:1" fill="#faf9fa" d="M 450.5,624.5 C 450.5,623.833 450.167,623.5 449.5,623.5C 452.083,612.235 455.416,601.235 459.5,590.5C 462.066,588.855 464.732,588.522 467.5,589.5C 465.038,606.882 472.038,618.716 488.5,625C 514.174,626.16 526.174,613.993 524.5,588.5C 529.954,590.727 535.287,593.227 540.5,596C 543.311,597.644 545.644,599.81 547.5,602.5C 519.685,629.417 487.352,636.751 450.5,624.5 Z"/></g>
<g><path style="opacity:1" fill="#f1ab9c" d="M 838.5,594.5 C 837.677,596.987 836.677,599.321 835.5,601.5C 829.753,596.446 823.753,591.613 817.5,587C 824.626,588.885 831.626,591.385 838.5,594.5 Z"/></g>
<g><path style="opacity:1" fill="#efd3ce" d="M 680.5,586.5 C 678.5,591.5 676.5,596.5 674.5,601.5C 670.889,598.961 669.555,595.628 670.5,591.5C 673.515,589.326 676.849,587.659 680.5,586.5 Z"/></g>
<g><path style="opacity:1" fill="#f6f6f7" d="M 754.5,593.5 C 756.033,603.197 761.533,609.197 771,611.5C 779.415,610.422 784.748,605.755 787,597.5C 788.011,596.663 789.178,596.33 790.5,596.5C 788.889,613.966 779.556,621.466 762.5,619C 753.566,614.559 748.232,607.392 746.5,597.5C 746.5,595.167 746.5,592.833 746.5,590.5C 748.833,590.5 751.167,590.5 753.5,590.5C 753.263,591.791 753.596,592.791 754.5,593.5 Z"/></g>
<g><path style="opacity:1" fill="#f9f7f7" d="M 716.5,621.5 C 710.449,617.784 705.116,613.117 700.5,607.5C 703.513,604.664 706.846,602.331 710.5,600.5C 714.451,598.301 718.451,596.301 722.5,594.5C 726.985,592.672 731.652,591.672 736.5,591.5C 737.083,600.251 739.25,608.585 743,616.5C 753.566,634.049 767.733,637.883 785.5,628C 793.467,620.566 798.134,611.399 799.5,600.5C 807.986,604.24 815.986,608.74 823.5,614C 789.575,641.006 753.909,643.506 716.5,621.5 Z"/></g>
<g><path style="opacity:1" fill="#b3afb4" d="M 754.5,593.5 C 753.596,592.791 753.263,591.791 753.5,590.5C 751.167,590.5 748.833,590.5 746.5,590.5C 746.5,592.833 746.5,595.167 746.5,597.5C 745.527,595.052 745.194,592.385 745.5,589.5C 748.5,589.5 751.5,589.5 754.5,589.5C 754.5,590.833 754.5,592.167 754.5,593.5 Z"/></g>
<g><path style="opacity:1" fill="#bfb4b6" d="M 840.5,585.5 C 840.833,585.5 841.167,585.5 841.5,585.5C 846.135,590.1 850.302,595.1 854,600.5C 856.221,604.434 855.721,605.101 852.5,602.5C 848.46,598.458 844.127,594.791 839.5,591.5C 839.833,589.5 840.167,587.5 840.5,585.5 Z"/></g>
<g><path style="opacity:1" fill="#c1b7ba" d="M 724.5,581.5 C 723.673,585.807 723.007,590.14 722.5,594.5C 718.451,596.301 714.451,598.301 710.5,600.5C 709.375,597.143 707.375,594.477 704.5,592.5C 710.516,587.822 717.183,584.155 724.5,581.5 Z"/></g>
<g><path style="opacity:1" fill="#f4cec5" d="M 838.5,591.5 C 838.833,591.5 839.167,591.5 839.5,591.5C 844.127,594.791 848.46,598.458 852.5,602.5C 849.06,600.945 845.727,599.112 842.5,597C 841.5,596.333 840.5,596.333 839.5,597C 845.03,605.346 850.696,613.512 856.5,621.5C 856.59,624.152 855.924,626.485 854.5,628.5C 853.045,626.866 851.378,625.532 849.5,624.5C 846.319,617.592 841.319,611.592 834.5,606.5C 834.5,606.167 834.5,605.833 834.5,605.5C 835.234,604.292 835.567,602.959 835.5,601.5C 836.677,599.321 837.677,596.987 838.5,594.5C 838.5,593.5 838.5,592.5 838.5,591.5 Z"/></g>
<g><path style="opacity:1" fill="#e1a99e" d="M 670.5,591.5 C 669.555,595.628 670.889,598.961 674.5,601.5C 672.496,608.677 669.996,615.677 667,622.5C 662.642,616.444 658.808,610.11 655.5,603.5C 659.103,597.851 664.103,593.851 670.5,591.5 Z"/></g>
<g><path style="opacity:1" fill="#9d8a8c" d="M 704.5,592.5 C 707.375,594.477 709.375,597.143 710.5,600.5C 706.846,602.331 703.513,604.664 700.5,607.5C 705.116,613.117 710.449,617.784 716.5,621.5C 714.386,622.784 713.386,624.784 713.5,627.5C 709.383,624.932 705.383,622.098 701.5,619C 697.528,617.681 693.861,615.847 690.5,613.5C 690.5,613.167 690.5,612.833 690.5,612.5C 691.344,608.789 692.344,605.123 693.5,601.5C 693.833,600.833 694.167,600.167 694.5,599.5C 697.833,597.167 701.167,594.833 704.5,592.5 Z"/></g>
<g><path style="opacity:1" fill="#2e212f" d="M 693.5,601.5 C 692.344,605.123 691.344,608.789 690.5,612.5C 688.899,611.481 687.899,609.981 687.5,608C 688.985,605.348 690.985,603.182 693.5,601.5 Z"/></g>
<g><path style="opacity:1" fill="#a39294" d="M 421.5,594.5 C 419.204,601.685 417.537,609.018 416.5,616.5C 416.167,616.5 415.833,616.5 415.5,616.5C 415.585,615.005 414.919,614.005 413.5,613.5C 408.288,615.742 402.954,617.242 397.5,618C 401.389,613.044 405.389,608.21 409.5,603.5C 413.172,600.004 417.172,597.004 421.5,594.5 Z"/></g>
<g><path style="opacity:1" fill="#fbf0ec" d="M 458.5,590.5 C 458.833,590.5 459.167,590.5 459.5,590.5C 455.416,601.235 452.083,612.235 449.5,623.5C 443.385,621.277 437.719,618.277 432.5,614.5C 429.681,612.581 427.014,610.415 424.5,608C 428.898,605.143 433.232,602.309 437.5,599.5C 444.388,596.222 451.388,593.222 458.5,590.5 Z"/></g>
<g><path style="opacity:1" fill="#cb8074" d="M 532.5,687.5 C 541.799,666.106 548.965,644.106 554,621.5C 543.37,629.235 531.536,633.735 518.5,635C 526.796,630.696 534.13,625.196 540.5,618.5C 541.29,617.206 542.29,616.039 543.5,615C 547.29,612.623 551.29,610.623 555.5,609C 557.958,607.213 559.624,604.879 560.5,602C 552.393,592.199 543.893,584.033 535,577.5C 545.477,580.567 553.81,586.567 560,595.5C 561.607,604.064 561.94,612.73 561,621.5C 553.909,644.668 544.409,666.668 532.5,687.5 Z"/></g>
<g><path style="opacity:1" fill="#f5b1a3" d="M 636.5,617.5 C 639.112,646.17 647.279,673.17 661,698.5C 664.644,704.63 668.811,710.297 673.5,715.5C 681.124,724.625 689.291,733.292 698,741.5C 702.747,749.656 703.747,758.322 701,767.5C 698.672,772.327 695.172,775.994 690.5,778.5C 686.519,779.021 682.519,779.354 678.5,779.5C 678.878,777.354 679.212,775.187 679.5,773C 679.607,770.779 678.94,768.946 677.5,767.5C 676.797,765.284 675.464,763.451 673.5,762C 658.237,755.886 644.237,757.886 631.5,768C 626.353,774.158 620.353,779.158 613.5,783C 603.497,785.08 594.497,783.08 586.5,777C 580.833,772.667 575.833,767.667 571.5,762C 566.262,758.734 560.595,757.734 554.5,759C 548.802,761.97 547.135,766.47 549.5,772.5C 545.519,773.021 541.519,773.354 537.5,773.5C 530.883,768.442 528.716,761.775 531,753.5C 537.242,740.681 543.742,728.015 550.5,715.5C 569.192,683.752 579.859,649.419 582.5,612.5C 594.947,607.765 607.613,607.265 620.5,611C 625.968,612.903 631.301,615.07 636.5,617.5 Z"/></g>
<g><path style="opacity:1" fill="#9c898b" d="M 834.5,606.5 C 841.319,611.592 846.319,617.592 849.5,624.5C 848.833,624.5 848.167,624.5 847.5,624.5C 843.067,622.923 838.567,621.256 834,619.5C 832.669,621.996 830.836,623.996 828.5,625.5C 830.102,619.029 832.102,612.696 834.5,606.5 Z"/></g>
<g><path style="opacity:1" fill="#f6ded8" d="M 883.5,588.5 C 886.168,590.336 888.334,592.669 890,595.5C 890.533,607.873 890.033,620.206 888.5,632.5C 887.778,632.918 887.278,633.584 887,634.5C 883.915,629.328 880.581,624.328 877,619.5C 875.991,617.975 875.491,616.308 875.5,614.5C 877.594,605.557 880.261,596.89 883.5,588.5 Z"/></g>
<g><path style="opacity:1" fill="#f3f3f3" d="M 339.5,610.5 C 343.397,611.91 347.397,612.91 351.5,613.5C 351.749,622.929 350.916,632.262 349,641.5C 344.512,631.54 341.346,621.206 339.5,610.5 Z"/></g>
<g><path style="opacity:1" fill="#cd8075" d="M 974.5,632.5 C 954.194,623.264 932.861,619.597 910.5,621.5C 910.093,644.759 906.26,667.426 899,689.5C 898.101,693.151 895.934,695.651 892.5,697C 859.382,708.112 825.382,714.779 790.5,717C 759.801,717.677 729.134,717.343 698.5,716C 705.099,722.701 710.599,730.201 715,738.5C 723.452,764.328 715.619,783.328 691.5,795.5C 694.441,799.944 697.941,803.944 702,807.5C 702.333,804.167 702.667,800.833 703,797.5C 703.308,796.692 703.808,796.025 704.5,795.5C 710.833,800.167 717.167,804.833 723.5,809.5C 724.012,807.149 725.012,805.149 726.5,803.5C 730.167,807.833 734.167,811.833 738.5,815.5C 739.589,812.321 741.423,809.655 744,807.5C 751.402,821.567 762.569,831.4 777.5,837C 790.826,847.481 797.993,861.314 799,878.5C 799.5,892.829 799.667,907.163 799.5,921.5C 799.213,927.701 799.213,933.701 799.5,939.5C 799.217,940.289 798.717,940.956 798,941.5C 797.366,923.146 796.366,904.812 795,886.5C 794.817,869.636 788.317,855.802 775.5,845C 768.833,840.333 762.167,835.667 755.5,831C 751.578,827.749 748.412,823.916 746,819.5C 745.667,822.167 745.333,824.833 745,827.5C 739.333,823.167 734.333,818.167 730,812.5C 729.818,815.226 729.318,817.893 728.5,820.5C 719.409,816.576 711.575,810.909 705,803.5C 705.47,807.627 706.97,811.461 709.5,815C 701.143,813.818 694.143,809.985 688.5,803.5C 687.833,806.167 687.167,808.833 686.5,811.5C 678.614,806.785 671.448,801.119 665,794.5C 663.713,798.118 661.379,800.785 658,802.5C 653.335,799.999 649.002,796.999 645,793.5C 643.512,800.991 639.012,804.158 631.5,803C 628.963,800.094 626.796,796.927 625,793.5C 616.287,804.338 606.454,805.338 595.5,796.5C 594.833,798.833 594.167,801.167 593.5,803.5C 589.302,801.567 585.635,798.901 582.5,795.5C 581.568,797.766 580.234,799.766 578.5,801.5C 576.938,798.731 575.105,796.064 573,793.5C 571.77,796.732 569.77,799.399 567,801.5C 564.513,799.191 562.513,796.524 561,793.5C 554.672,802.246 546.172,807.246 535.5,808.5C 535.5,806.5 535.5,804.5 535.5,802.5C 533.217,802.608 531.217,803.441 529.5,805C 525.246,808.747 521.579,812.914 518.5,817.5C 516.167,815.833 514.167,813.833 512.5,811.5C 490.635,821.195 476.469,837.529 470,860.5C 464.658,880.536 463.158,900.87 465.5,921.5C 464.833,921.5 464.5,921.167 464.5,920.5C 461.732,903.609 460.899,886.609 462,869.5C 463.72,855.999 468.387,843.666 476,832.5C 484.606,822.888 494.106,814.388 504.5,807C 508.635,804.597 512.968,802.763 517.5,801.5C 517.148,804.073 517.648,806.406 519,808.5C 523.985,801.676 530.485,797.009 538.5,794.5C 538.755,797.016 539.589,799.35 541,801.5C 544.914,799.46 548.748,797.293 552.5,795C 554.037,793.89 554.703,792.39 554.5,790.5C 541.061,790.202 530.228,784.868 522,774.5C 517.877,768.045 516.544,761.045 518,753.5C 524.047,740.069 529.547,726.403 534.5,712.5C 534,712.167 533.5,711.833 533,711.5C 524.694,713.926 516.194,715.426 507.5,716C 472.833,716.667 438.167,716.667 403.5,716C 388.963,714.995 374.63,712.828 360.5,709.5C 359.659,707.621 359.325,705.621 359.5,703.5C 372.703,706.076 386.036,707.576 399.5,708C 438.167,708.667 476.833,708.667 515.5,708C 522.638,707.549 529.305,705.549 535.5,702C 539.652,696.881 544.152,692.048 549,687.5C 547.842,694.318 545.842,700.985 543,707.5C 537,720.167 531,732.833 525,745.5C 516.948,763.865 522.115,776.698 540.5,784C 545.728,786.147 551.061,786.647 556.5,785.5C 554.874,784.01 553.208,782.51 551.5,781C 546.326,779.249 541.659,776.749 537.5,773.5C 541.519,773.354 545.519,773.021 549.5,772.5C 552.545,776.351 556.545,778.851 561.5,780C 567.833,780.333 574.167,780.667 580.5,781C 592.323,788.879 604.989,790.545 618.5,786C 622.447,783.72 626.113,781.053 629.5,778C 632.461,776.735 635.461,775.569 638.5,774.5C 649.375,777.734 660.375,778.234 671.5,776C 676.051,774.951 678.051,772.118 677.5,767.5C 678.94,768.946 679.607,770.779 679.5,773C 679.212,775.187 678.878,777.354 678.5,779.5C 682.519,779.354 686.519,779.021 690.5,778.5C 687.68,781.081 684.346,782.914 680.5,784C 674.897,785.124 669.231,785.79 663.5,786C 669.949,792.66 677.616,794.327 686.5,791C 705.7,782.447 713.866,767.614 711,746.5C 710.197,743.756 709.197,741.089 708,738.5C 700.023,730.191 691.69,722.191 683,714.5C 680.083,710.334 677.416,706.001 675,701.5C 674.251,700.365 674.417,699.365 675.5,698.5C 685.244,704.692 695.911,708.192 707.5,709C 768.212,714.462 827.879,708.962 886.5,692.5C 890.961,683.617 894.128,674.284 896,664.5C 899.015,647.682 901.515,630.848 903.5,614C 918.222,610.538 932.888,610.871 947.5,615C 956.095,617.476 964.428,620.643 972.5,624.5C 973.795,627.012 974.461,629.679 974.5,632.5 Z"/></g>
<g><path style="opacity:1" fill="#cc8074" d="M 582.5,612.5 C 579.859,649.419 569.192,683.752 550.5,715.5C 561.158,684.202 569.325,652.202 575,619.5C 576.469,616.162 578.969,613.829 582.5,612.5 Z"/></g>
<g><path style="opacity:1" fill="#e1a69a" d="M 690.5,613.5 C 693.861,615.847 697.528,617.681 701.5,619C 705.383,622.098 709.383,624.932 713.5,627.5C 713.5,627.833 713.5,628.167 713.5,628.5C 711.526,634.395 709.859,640.395 708.5,646.5C 699.646,641.647 691.646,635.647 684.5,628.5C 686.651,623.564 688.651,618.564 690.5,613.5 Z"/></g>
<g><path style="opacity:1" fill="#f6c4bd" d="M 1027.5,626.5 C 1013.9,625.306 1001.56,629.139 990.5,638C 987.943,640.892 985.776,644.059 984,647.5C 983.501,642.511 983.334,637.511 983.5,632.5C 991.684,625.17 1001.02,619.67 1011.5,616C 1021.09,613.283 1026.42,616.783 1027.5,626.5 Z"/></g>
<g><path style="opacity:1" fill="#f3af9f" d="M 415.5,616.5 C 415.833,616.5 416.167,616.5 416.5,616.5C 419.619,620.957 423.619,624.291 428.5,626.5C 428.5,626.833 428.5,627.167 428.5,627.5C 425.094,638.051 422.094,648.718 419.5,659.5C 426.2,659.83 432.866,659.497 439.5,658.5C 442.214,650.914 444.547,643.247 446.5,635.5C 473.34,644.991 499.34,643.158 524.5,630C 529.73,625.923 535.064,622.09 540.5,618.5C 534.13,625.196 526.796,630.696 518.5,635C 531.536,633.735 543.37,629.235 554,621.5C 548.965,644.106 541.799,666.106 532.5,687.5C 529.142,693.704 523.808,696.87 516.5,697C 510.87,697.966 505.204,698.633 499.5,699C 460.803,699.995 422.136,699.329 383.5,697C 378.423,696.405 373.756,694.905 369.5,692.5C 369.738,682.022 369.738,671.355 369.5,660.5C 380.659,659.669 391.993,659.169 403.5,659C 406.937,648.999 409.937,638.833 412.5,628.5C 413.5,624.501 414.5,620.501 415.5,616.5 Z"/></g>
<g><path style="opacity:1" fill="#cc8075" d="M 636.5,617.5 C 637.885,618.614 639.385,619.614 641,620.5C 644.817,642.617 651.817,663.617 662,683.5C 664.167,694.838 668,705.505 673.5,715.5C 668.811,710.297 664.644,704.63 661,698.5C 647.279,673.17 639.112,646.17 636.5,617.5 Z"/></g>
<g><path style="opacity:1" fill="#f6c7ba" d="M 383.5,602.5 C 391.984,603.493 400.651,603.826 409.5,603.5C 405.389,608.21 401.389,613.044 397.5,618C 402.954,617.242 408.288,615.742 413.5,613.5C 414.919,614.005 415.585,615.005 415.5,616.5C 414.5,620.501 413.5,624.501 412.5,628.5C 400.735,629.819 389.069,629.819 377.5,628.5C 378.583,619.51 380.583,610.843 383.5,602.5 Z"/></g>
<g><path style="opacity:1" fill="#f5b1a3" d="M 974.5,632.5 C 974.5,633.167 974.5,633.833 974.5,634.5C 971.255,662.168 965.755,689.501 958,716.5C 952.434,735.297 944.434,752.964 934,769.5C 915.46,798.049 894.627,824.882 871.5,850C 851.534,869.239 828.034,882.405 801,889.5C 800.83,900.341 800.33,911.008 799.5,921.5C 799.667,907.163 799.5,892.829 799,878.5C 797.993,861.314 790.826,847.481 777.5,837C 762.569,831.4 751.402,821.567 744,807.5C 741.423,809.655 739.589,812.321 738.5,815.5C 734.167,811.833 730.167,807.833 726.5,803.5C 725.012,805.149 724.012,807.149 723.5,809.5C 717.167,804.833 710.833,800.167 704.5,795.5C 703.808,796.025 703.308,796.692 703,797.5C 702.667,800.833 702.333,804.167 702,807.5C 697.941,803.944 694.441,799.944 691.5,795.5C 715.619,783.328 723.452,764.328 715,738.5C 710.599,730.201 705.099,722.701 698.5,716C 729.134,717.343 759.801,717.677 790.5,717C 825.382,714.779 859.382,708.112 892.5,697C 895.934,695.651 898.101,693.151 899,689.5C 906.26,667.426 910.093,644.759 910.5,621.5C 932.861,619.597 954.194,623.264 974.5,632.5 Z"/></g>
<g><path style="opacity:1" fill="#8e797c" d="M 432.5,614.5 C 437.719,618.277 443.385,621.277 449.5,623.5C 450.167,623.5 450.5,623.833 450.5,624.5C 448.115,627.653 446.782,631.32 446.5,635.5C 440.26,633.38 434.26,630.713 428.5,627.5C 428.5,627.167 428.5,626.833 428.5,626.5C 430.125,622.697 431.458,618.697 432.5,614.5 Z"/></g>
<g><path style="opacity:1" fill="#eeab9c" d="M 1027.5,626.5 C 1028.66,633.989 1028.82,641.655 1028,649.5C 1022.38,632.176 1013.21,630.009 1000.5,643C 993.423,650.316 988.257,658.816 985,668.5C 982.912,656.407 982.412,644.407 983.5,632.5C 983.334,637.511 983.501,642.511 984,647.5C 985.776,644.059 987.943,640.892 990.5,638C 1001.56,629.139 1013.9,625.306 1027.5,626.5 Z"/></g>
<g><path style="opacity:1" fill="#f3af9f" d="M 869.5,580.5 C 874.528,582.676 879.194,585.343 883.5,588.5C 880.261,596.89 877.594,605.557 875.5,614.5C 872.879,621.62 870.546,628.954 868.5,636.5C 872.734,643.962 877.234,651.296 882,658.5C 882.77,659.598 883.603,659.598 884.5,658.5C 882.982,666.597 880.649,674.43 877.5,682C 837.967,695.149 797.3,701.649 755.5,701.5C 733.614,701.228 711.947,699.228 690.5,695.5C 674.986,675.47 666.486,652.803 665,627.5C 670.765,639.101 678.599,649.101 688.5,657.5C 688.833,657.333 689.167,657.167 689.5,657C 686.153,648.111 683.819,638.944 682.5,629.5C 682.392,626.134 683.058,625.8 684.5,628.5C 691.646,635.647 699.646,641.647 708.5,646.5C 712.268,649.225 716.268,651.725 720.5,654C 726.594,657.033 732.927,659.033 739.5,660C 729.63,653.104 721.964,644.271 716.5,633.5C 716.957,632.702 717.624,632.369 718.5,632.5C 727.593,638.877 737.593,643.377 748.5,646C 764.306,647.184 779.973,646.351 795.5,643.5C 805.715,642.155 815.548,639.488 825,635.5C 825.561,632.721 826.394,630.054 827.5,627.5C 827.833,626.833 828.167,626.167 828.5,625.5C 830.836,623.996 832.669,621.996 834,619.5C 838.567,621.256 843.067,622.923 847.5,624.5C 840.984,629.261 833.984,633.261 826.5,636.5C 832.333,645.5 838.167,654.5 844,663.5C 847.967,651.963 851.467,640.296 854.5,628.5C 855.924,626.485 856.59,624.152 856.5,621.5C 861.279,608.075 865.612,594.408 869.5,580.5 Z"/></g>
<g><path style="opacity:1" fill="#cf8276" d="M 713.5,628.5 C 715.389,629.604 717.055,630.937 718.5,632.5C 717.624,632.369 716.957,632.702 716.5,633.5C 721.964,644.271 729.63,653.104 739.5,660C 732.927,659.033 726.594,657.033 720.5,654C 716.268,651.725 712.268,649.225 708.5,646.5C 709.859,640.395 711.526,634.395 713.5,628.5 Z"/></g>
<g><path style="opacity:1" fill="#c77d72" d="M 827.5,627.5 C 826.394,630.054 825.561,632.721 825,635.5C 815.548,639.488 805.715,642.155 795.5,643.5C 801.029,641.263 806.695,639.097 812.5,637C 817.651,634.004 822.651,630.838 827.5,627.5 Z"/></g>
<g><path style="opacity:1" fill="#f6c7bb" d="M 875.5,614.5 C 875.491,616.308 875.991,617.975 877,619.5C 880.581,624.328 883.915,629.328 887,634.5C 887.278,633.584 887.778,632.918 888.5,632.5C 887.258,641.192 885.925,649.859 884.5,658.5C 883.603,659.598 882.77,659.598 882,658.5C 877.234,651.296 872.734,643.962 868.5,636.5C 870.546,628.954 872.879,621.62 875.5,614.5 Z"/></g>
<g><path style="opacity:1" fill="#f6c1b4" d="M 847.5,624.5 C 848.167,624.5 848.833,624.5 849.5,624.5C 851.378,625.532 853.045,626.866 854.5,628.5C 851.467,640.296 847.967,651.963 844,663.5C 838.167,654.5 832.333,645.5 826.5,636.5C 833.984,633.261 840.984,629.261 847.5,624.5 Z"/></g>
<g><path style="opacity:1" fill="#f7c5be" d="M 974.5,634.5 C 982.233,682.302 978.9,729.469 964.5,776C 960.163,790.171 954.33,803.671 947,816.5C 946.189,808.967 944.523,801.634 942,794.5C 929.98,843.848 902.48,882.015 859.5,909C 850.907,914.214 842.074,919.048 833,923.5C 830.199,936.929 824.532,948.929 816,959.5C 812.547,950.594 808.547,941.927 804,933.5C 803.586,933.043 803.086,932.709 802.5,932.5C 801.3,934.771 800.3,937.104 799.5,939.5C 799.213,933.701 799.213,927.701 799.5,921.5C 800.33,911.008 800.83,900.341 801,889.5C 828.034,882.405 851.534,869.239 871.5,850C 894.627,824.882 915.46,798.049 934,769.5C 944.434,752.964 952.434,735.297 958,716.5C 965.755,689.501 971.255,662.168 974.5,634.5 Z"/></g>
<g><path style="opacity:1" fill="#cb7e73" d="M 996.5,743.5 C 995.833,737.833 995.167,732.167 994.5,726.5C 994.177,722.774 994.511,719.107 995.5,715.5C 998.944,714.301 1002.11,712.634 1005,710.5C 1003.96,701.553 1003.62,692.553 1004,683.5C 1007.67,680.167 1011.33,676.833 1015,673.5C 1016.17,669.5 1014.67,667.5 1010.5,667.5C 1007.15,667.666 1004.32,669 1002,671.5C 998.245,678.836 995.245,686.503 993,694.5C 989.622,677.069 994.455,662.235 1007.5,650C 1010.72,647.216 1014.38,645.882 1018.5,646C 1020.17,651.326 1021.34,656.826 1022,662.5C 1026.18,670.369 1027.85,678.702 1027,687.5C 1024.22,698.507 1019.89,708.84 1014,718.5C 1008.34,726.99 1002.5,735.323 996.5,743.5 Z"/></g>
<g><path style="opacity:1" fill="#f5bbad" d="M 377.5,628.5 C 389.069,629.819 400.735,629.819 412.5,628.5C 409.937,638.833 406.937,648.999 403.5,659C 391.993,659.169 380.659,659.669 369.5,660.5C 368.596,659.791 368.263,658.791 368.5,657.5C 369.693,657.03 370.36,656.03 370.5,654.5C 372.841,645.717 375.175,637.05 377.5,628.5 Z"/></g>
<g><path style="opacity:1" fill="#f5bbac" d="M 428.5,627.5 C 434.26,630.713 440.26,633.38 446.5,635.5C 444.547,643.247 442.214,650.914 439.5,658.5C 432.866,659.497 426.2,659.83 419.5,659.5C 422.094,648.718 425.094,638.051 428.5,627.5 Z"/></g>
<g><path style="opacity:1" fill="#f5b1a3" d="M 360.5,709.5 C 374.63,712.828 388.963,714.995 403.5,716C 438.167,716.667 472.833,716.667 507.5,716C 516.194,715.426 524.694,713.926 533,711.5C 533.5,711.833 534,712.167 534.5,712.5C 529.547,726.403 524.047,740.069 518,753.5C 516.544,761.045 517.877,768.045 522,774.5C 530.228,784.868 541.061,790.202 554.5,790.5C 554.703,792.39 554.037,793.89 552.5,795C 548.748,797.293 544.914,799.46 541,801.5C 539.589,799.35 538.755,797.016 538.5,794.5C 530.485,797.009 523.985,801.676 519,808.5C 517.648,806.406 517.148,804.073 517.5,801.5C 512.968,802.763 508.635,804.597 504.5,807C 494.106,814.388 484.606,822.888 476,832.5C 468.387,843.666 463.72,855.999 462,869.5C 460.899,886.609 461.732,903.609 464.5,920.5C 452.53,905.687 440.697,890.687 429,875.5C 418.667,865.5 408.333,855.5 398,845.5C 389.764,834.471 384.431,822.138 382,808.5C 380.271,796.545 378.938,784.545 378,772.5C 374.197,756.425 369.197,740.758 363,725.5C 362.51,726.793 362.343,728.127 362.5,729.5C 361.617,722.998 360.951,716.332 360.5,709.5 Z"/></g>
<g><path style="opacity:1" fill="#f6c4bd" d="M 464.5,920.5 C 464.5,921.167 464.833,921.5 465.5,921.5C 465.265,922.097 464.765,922.43 464,922.5C 439.051,913.531 420.051,897.531 407,874.5C 406.667,878.833 406.333,883.167 406,887.5C 385.356,865.541 372.689,839.541 368,809.5C 365.569,782.873 363.735,756.207 362.5,729.5C 362.343,728.127 362.51,726.793 363,725.5C 369.197,740.758 374.197,756.425 378,772.5C 378.938,784.545 380.271,796.545 382,808.5C 384.431,822.138 389.764,834.471 398,845.5C 408.333,855.5 418.667,865.5 429,875.5C 440.697,890.687 452.53,905.687 464.5,920.5 Z"/></g>
<g><path style="opacity:1" fill="#825353" d="M 994.5,726.5 C 995.167,732.167 995.833,737.833 996.5,743.5C 996.44,744.043 996.107,744.376 995.5,744.5C 994.504,738.537 994.171,732.537 994.5,726.5 Z"/></g>
<g><path style="opacity:1" fill="#2d202e" d="M 677.5,767.5 C 678.051,772.118 676.051,774.951 671.5,776C 660.375,778.234 649.375,777.734 638.5,774.5C 635.461,775.569 632.461,776.735 629.5,778C 626.113,781.053 622.447,783.72 618.5,786C 604.989,790.545 592.323,788.879 580.5,781C 574.167,780.667 567.833,780.333 561.5,780C 556.545,778.851 552.545,776.351 549.5,772.5C 547.135,766.47 548.802,761.97 554.5,759C 560.595,757.734 566.262,758.734 571.5,762C 575.833,767.667 580.833,772.667 586.5,777C 594.497,783.08 603.497,785.08 613.5,783C 620.353,779.158 626.353,774.158 631.5,768C 644.237,757.886 658.237,755.886 673.5,762C 675.464,763.451 676.797,765.284 677.5,767.5 Z"/></g>
<g><path style="opacity:1" fill="#edaa9b" d="M 619.5,829.5 C 626.382,837.278 635.049,841.944 645.5,843.5C 645.192,841.076 645.526,838.743 646.5,836.5C 651.286,841.406 656.953,843.739 663.5,843.5C 662.456,841.232 662.289,838.899 663,836.5C 666.649,840.659 671.149,843.326 676.5,844.5C 675.812,839.758 676.812,838.925 679.5,842C 682.929,844.106 686.596,845.106 690.5,845C 685.99,840.46 686.99,838.794 693.5,840C 696.167,841.333 698.167,843.333 699.5,846C 702.166,848.335 705.166,850.169 708.5,851.5C 709.308,849.577 709.808,847.577 710,845.5C 712.016,847.684 714.183,849.684 716.5,851.5C 717.584,850.335 718.417,849.002 719,847.5C 721.027,852.215 724.027,856.215 728,859.5C 728.14,856.957 728.806,854.623 730,852.5C 732.894,858.062 736.561,863.062 741,867.5C 741.333,866.833 741.667,866.167 742,865.5C 750.407,872.322 755.073,880.989 756,891.5C 744.471,880.312 731.305,871.479 716.5,865C 692.794,853.438 667.794,848.438 641.5,850C 632.911,851.439 624.411,853.272 616,855.5C 596.706,851.419 577.206,849.919 557.5,851C 538.789,855.857 521.456,863.69 505.5,874.5C 504.401,871.641 504.901,868.974 507,866.5C 515.035,860.644 522.702,854.311 530,847.5C 530.216,849.384 530.883,851.051 532,852.5C 535.698,848.069 540.198,844.736 545.5,842.5C 546.167,844.167 546.833,845.833 547.5,847.5C 556.324,841.544 565.991,839.21 576.5,840.5C 575.833,841.833 575.167,843.167 574.5,844.5C 583.543,844.764 591.71,842.097 599,836.5C 599.018,838.797 598.851,841.131 598.5,843.5C 607.815,842.029 614.815,837.362 619.5,829.5 Z"/></g>
<g><path style="opacity:1" fill="#c62a29" d="M 737.5,882.5 C 733.366,883.485 729.032,883.818 724.5,883.5C 713.775,881.968 703.108,880.135 692.5,878C 669.314,876.544 646.814,879.71 625,887.5C 613.438,881.901 601.272,878.401 588.5,877C 569.16,876.658 549.827,876.658 530.5,877C 526.984,875.744 523.984,873.744 521.5,871C 533.246,864.629 545.58,859.629 558.5,856C 577.515,854.544 596.181,856.377 614.5,861.5C 644.186,852.706 673.519,853.873 702.5,865C 713.631,871.899 725.298,877.732 737.5,882.5 Z"/></g>
<g><path style="opacity:1" fill="#e86356" d="M 508.5,881.5 C 509.251,880.427 510.251,880.26 511.5,881C 514.833,882.667 518.167,884.333 521.5,886C 528.803,892.302 535.803,898.968 542.5,906C 559.85,917.117 578.85,923.45 599.5,925C 618.241,926.088 636.908,925.421 655.5,923C 671.938,918.443 688.605,915.109 705.5,913C 720.394,908.719 734.061,902.052 746.5,893C 750.421,892.235 752.755,893.902 753.5,898C 743.469,912.364 731.136,924.364 716.5,934C 711.833,936.333 707.167,938.667 702.5,941C 683.463,946.926 664.129,951.593 644.5,955C 629.5,955.667 614.5,955.667 599.5,955C 579.635,953.455 561.301,947.455 544.5,937C 527.831,921.487 515.831,902.987 508.5,881.5 Z"/></g>
<g><path style="opacity:1" fill="#cb7f74" d="M 760.5,908.5 C 759.033,907.708 757.7,907.708 756.5,908.5C 753.528,915.636 749.195,921.803 743.5,927C 729.004,937.085 714.004,946.418 698.5,955C 682.446,959.843 666.112,963.51 649.5,966C 649,966.5 648.5,967 648,967.5C 646.383,984.755 651.883,999.255 664.5,1011C 668.962,1011.85 672.962,1010.85 676.5,1008C 682.167,1001.67 687.833,995.333 693.5,989C 694.448,988.517 695.448,988.351 696.5,988.5C 696.335,991.518 696.502,994.518 697,997.5C 697.414,997.957 697.914,998.291 698.5,998.5C 700.956,995.542 703.622,992.709 706.5,990C 709.865,987.843 713.032,988.009 716,990.5C 716.689,993.408 717.855,996.075 719.5,998.5C 726.904,986.701 734.07,974.701 741,962.5C 744.887,958.472 749.387,955.306 754.5,953C 758.238,947.79 760.405,941.956 761,935.5C 761.711,926.806 761.544,918.139 760.5,909.5C 767.322,931.872 765.156,953.539 754,974.5C 752.876,968.897 752.21,963.231 752,957.5C 741.165,967.503 734.832,979.836 733,994.5C 729.023,1000.98 723.856,1006.31 717.5,1010.5C 716.201,1009.91 715.368,1008.91 715,1007.5C 712.915,1002.67 711.415,997.667 710.5,992.5C 703.169,998.821 698.669,1006.82 697,1016.5C 693.959,1011.55 691.793,1006.22 690.5,1000.5C 685.69,1008.48 679.357,1014.98 671.5,1020C 669.833,1020.67 668.167,1020.67 666.5,1020C 657.461,1013.11 650.961,1004.28 647,993.5C 645.33,988.489 643.663,983.489 642,978.5C 631.508,983.371 621.842,982.037 613,974.5C 610.188,977.312 607.355,980.145 604.5,983C 596.863,983.776 590.363,981.276 585,975.5C 580.357,991.795 570.857,1004.3 556.5,1013C 551.295,1013.07 546.628,1011.41 542.5,1008C 538.95,1004.12 535.783,999.951 533,995.5C 530.863,997.321 530.03,999.654 530.5,1002.5C 528.217,1002.39 526.217,1001.56 524.5,1000C 512.28,987.723 505.947,972.889 505.5,955.5C 501.981,957.52 499.814,960.52 499,964.5C 492.958,942.211 490.292,919.545 491,896.5C 493.306,891.387 496.472,886.887 500.5,883C 501.448,882.517 502.448,882.351 503.5,882.5C 510.976,909.655 525.976,931.489 548.5,948C 574.826,960.191 602.492,964.858 631.5,962C 651.27,959.313 670.937,955.98 690.5,952C 718.614,943.537 741.114,927.37 758,903.5C 759.372,904.91 760.205,906.577 760.5,908.5 Z"/></g>
<g><path style="opacity:1" fill="#69232b" d="M 737.5,882.5 C 738.043,882.56 738.376,882.893 738.5,883.5C 733.682,884.812 729.015,884.812 724.5,883.5C 729.032,883.818 733.366,883.485 737.5,882.5 Z"/></g>
<g><path style="opacity:1" fill="#e3e3e4" d="M 718.5,901.5 C 710.015,889.527 700.349,888.527 689.5,898.5C 678.711,891.989 669.545,893.656 662,903.5C 648.99,894.389 635.157,893.056 620.5,899.5C 612.705,895.735 604.538,893.068 596,891.5C 588.977,891.761 583.477,894.761 579.5,900.5C 577.016,897.516 574.35,894.682 571.5,892C 565.958,890.108 562.458,891.941 561,897.5C 556.453,890.119 550.287,887.785 542.5,890.5C 542.5,888.167 542.5,885.833 542.5,883.5C 550.155,883.579 555.988,886.913 560,893.5C 561.793,890.705 563.96,888.205 566.5,886C 567.833,885.333 569.167,885.333 570.5,886C 573.704,888.869 576.537,892.035 579,895.5C 585.862,884.215 595.362,881.382 607.5,887C 611.939,889.118 616.106,891.618 620,894.5C 626.006,891.609 632.173,889.109 638.5,887C 649.228,884.343 657.061,887.843 662,897.5C 665.167,893.667 668.333,889.833 671.5,886C 678.971,884.158 684.137,886.991 687,894.5C 689.153,889.34 692.82,886.007 698,884.5C 705.095,884.859 711.095,887.526 716,892.5C 718.639,891.006 721.472,890.339 724.5,890.5C 724.307,895.223 722.307,898.89 718.5,901.5 Z"/></g>
<g><path style="opacity:1" fill="#fcfcfc" d="M 718.5,901.5 C 715.579,902.481 712.579,903.315 709.5,904C 701.739,910.112 694.573,909.278 688,901.5C 683.417,911.091 675.917,914.924 665.5,913C 664.315,911.647 662.981,910.48 661.5,909.5C 652.912,919.066 642.245,922.233 629.5,919C 626.121,917.893 622.954,916.393 620,914.5C 606.253,922.317 593.586,920.984 582,910.5C 580.225,911.27 578.725,912.437 577.5,914C 569.773,913.296 564.606,909.13 562,901.5C 560.506,906.216 557.339,907.716 552.5,906C 546.039,902.924 542.706,897.757 542.5,890.5C 550.287,887.785 556.453,890.119 561,897.5C 562.458,891.941 565.958,890.108 571.5,892C 574.35,894.682 577.016,897.516 579.5,900.5C 583.477,894.761 588.977,891.761 596,891.5C 604.538,893.068 612.705,895.735 620.5,899.5C 635.157,893.056 648.99,894.389 662,903.5C 669.545,893.656 678.711,891.989 689.5,898.5C 700.349,888.527 710.015,889.527 718.5,901.5 Z"/></g>
<g><path style="opacity:1" fill="#f5b1a3" d="M 498.5,893.5 C 501.091,894.254 502.924,895.921 504,898.5C 509.333,907.833 514.667,917.167 520,926.5C 526.212,935.712 534.045,943.212 543.5,949C 550.833,952.667 558.167,956.333 565.5,960C 573.195,966.809 575.695,975.309 573,985.5C 565.474,1010.39 553.308,1012.89 536.5,993C 526.622,995.156 520.122,991.322 517,981.5C 516.313,974.047 514.98,966.714 513,959.5C 508.667,953.167 504.333,946.833 500,940.5C 493.996,928.14 491.996,915.14 494,901.5C 495.245,898.676 496.745,896.009 498.5,893.5 Z"/></g>
<g><path style="opacity:1" fill="#f5b1a3" d="M 760.5,908.5 C 760.5,908.833 760.5,909.167 760.5,909.5C 761.544,918.139 761.711,926.806 761,935.5C 760.405,941.956 758.238,947.79 754.5,953C 749.387,955.306 744.887,958.472 741,962.5C 734.07,974.701 726.904,986.701 719.5,998.5C 717.855,996.075 716.689,993.408 716,990.5C 713.032,988.009 709.865,987.843 706.5,990C 703.622,992.709 700.956,995.542 698.5,998.5C 697.914,998.291 697.414,997.957 697,997.5C 696.502,994.518 696.335,991.518 696.5,988.5C 695.448,988.351 694.448,988.517 693.5,989C 687.833,995.333 682.167,1001.67 676.5,1008C 672.962,1010.85 668.962,1011.85 664.5,1011C 651.883,999.255 646.383,984.755 648,967.5C 648.5,967 649,966.5 649.5,966C 666.112,963.51 682.446,959.843 698.5,955C 714.004,946.418 729.004,937.085 743.5,927C 749.195,921.803 753.528,915.636 756.5,908.5C 757.7,907.708 759.033,907.708 760.5,908.5 Z"/></g>
<g><path style="opacity:1" fill="#cd8074" d="M 776.5,1146.5 C 744.041,1168.91 710.041,1189.08 674.5,1207C 634.947,1225.22 596.447,1223.38 559,1201.5C 558.517,1202.45 558.351,1203.45 558.5,1204.5C 558.5,1211.83 558.5,1219.17 558.5,1226.5C 557.337,1208.97 557.671,1191.31 559.5,1173.5C 587.207,1190.34 616.874,1194.84 648.5,1187C 678.341,1178.94 707.008,1167.94 734.5,1154C 753.356,1142.07 771.689,1129.41 789.5,1116C 831.197,1083.82 872.53,1051.15 913.5,1018C 935.556,997.623 953.39,974.123 967,947.5C 968.647,963.639 966.647,979.306 961,994.5C 959.086,999.335 956.419,1003.67 953,1007.5C 939.965,1019.59 926.465,1031.09 912.5,1042C 866.987,1076.69 821.654,1111.52 776.5,1146.5 Z"/></g>
<g><path style="opacity:1" fill="#ed5b69" d="M 1026.5,981.5 C 937.155,1058.33 850.322,1138.33 766,1221.5C 736.812,1259.17 708.645,1297.51 681.5,1336.5C 699.717,1298.4 718.217,1260.4 737,1222.5C 836.813,1134.6 936.813,1046.93 1037,959.5C 1034.35,967.141 1030.85,974.475 1026.5,981.5 Z"/></g>
<g><path style="opacity:1" fill="#be1e2e" d="M 1026.5,981.5 C 963.013,1105.81 899.513,1230.14 836,1354.5C 835.333,1355.83 834.667,1355.83 834,1354.5C 818.5,1326.17 803,1297.83 787.5,1269.5C 837.724,1208.81 887.224,1147.81 936,1086.5C 849.333,1173.83 762.667,1261.17 676,1348.5C 677.336,1344.35 679.169,1340.35 681.5,1336.5C 708.645,1297.51 736.812,1259.17 766,1221.5C 850.322,1138.33 937.155,1058.33 1026.5,981.5 Z"/></g>
<g><path style="opacity:1" fill="#403345" d="M 1039.5,1075.5 C 1041.02,1075.51 1042.18,1076.18 1043,1077.5C 1076.47,1113.3 1110.3,1148.8 1144.5,1184C 1143.83,1184.67 1143.17,1184.67 1142.5,1184C 1116.5,1163 1090.5,1142 1064.5,1121C 1063.83,1120.33 1063.17,1120.33 1062.5,1121C 1005.33,1206.83 948.167,1292.67 891,1378.5C 894.663,1369.49 898.663,1360.49 903,1351.5C 948.767,1259.63 994.267,1167.63 1039.5,1075.5 Z"/></g>
<g><path style="opacity:1" fill="#eb5a68" d="M 511.5,1160.5 C 458.615,1198.54 406.115,1237.21 354,1276.5C 353.685,1277.91 354.018,1279.24 355,1280.5C 370.999,1299.86 386.499,1319.53 401.5,1339.5C 380.969,1319.47 360.635,1299.3 340.5,1279C 397.698,1234.15 455.198,1189.65 513,1145.5C 513.021,1150.53 512.521,1155.53 511.5,1160.5 Z"/></g>
<g><path style="opacity:1" fill="#f5b1a3" d="M 776.5,1146.5 C 757.064,1162.76 737.731,1179.26 718.5,1196C 710.302,1203.86 702.469,1212.03 695,1220.5C 691.038,1225.43 687.871,1230.77 685.5,1236.5C 680.912,1242.41 676.412,1249.08 672,1256.5C 650.693,1294.78 630.693,1333.78 612,1373.5C 604.994,1364.16 598.994,1354.16 594,1343.5C 576.654,1298.45 564.82,1252.11 558.5,1204.5C 558.351,1203.45 558.517,1202.45 559,1201.5C 596.447,1223.38 634.947,1225.22 674.5,1207C 710.041,1189.08 744.041,1168.91 776.5,1146.5 Z"/></g>
<g><path style="opacity:1" fill="#be1e2e" d="M 511.5,1160.5 C 507.505,1186.79 503.505,1213.13 499.5,1239.5C 475.467,1262.2 451.133,1284.54 426.5,1306.5C 416.181,1296.68 406.014,1286.68 396,1276.5C 397.969,1296.85 400.469,1317.18 403.5,1337.5C 403.167,1338.5 402.833,1339.5 402.5,1340.5C 401.893,1340.38 401.56,1340.04 401.5,1339.5C 386.499,1319.53 370.999,1299.86 355,1280.5C 354.018,1279.24 353.685,1277.91 354,1276.5C 406.115,1237.21 458.615,1198.54 511.5,1160.5 Z"/></g>
<g><path style="opacity:1" fill="#f6c4bd" d="M 558.5,1204.5 C 564.82,1252.11 576.654,1298.45 594,1343.5C 598.994,1354.16 604.994,1364.16 612,1373.5C 630.693,1333.78 650.693,1294.78 672,1256.5C 676.412,1249.08 680.912,1242.41 685.5,1236.5C 659.73,1291.71 637.564,1348.38 619,1406.5C 591.717,1369.93 573.051,1329.26 563,1284.5C 559.937,1265.29 558.437,1245.95 558.5,1226.5C 558.5,1219.17 558.5,1211.83 558.5,1204.5 Z"/></g>
</svg>
